<?xml version="1.0" encoding="utf-8"?>
<!-- Generator: Adobe Illustrator 21.0.0, SVG Export Plug-In . SVG Version: 6.00 Build 0)  -->
<!DOCTYPE svg PUBLIC "-//W3C//DTD SVG 1.1//EN" "http://www.w3.org/Graphics/SVG/1.1/DTD/svg11.dtd">
<svg version="1.1" id="Layer_1" xmlns="http://www.w3.org/2000/svg" xmlns:xlink="http://www.w3.org/1999/xlink" x="0px" y="0px"
	 viewBox="0 0 359 358" style="enable-background:new 0 0 359 358;" xml:space="preserve">
<style type="text/css">
	.st0{fill:#FFFFFF;}
	.st1{fill:#444545;}
</style>
<g>
	<path class="st0" d="M347.8,306.6l-100-100c13.5-21.1,20.8-45.7,20.8-71.4c0-35.5-13.8-68.9-38.9-94c-25.1-25.1-58.5-38.9-94-38.9
		c-35.5,0-68.9,13.8-94,38.9c-25.1,25.1-38.9,58.5-38.9,94c0,35.5,13.8,68.9,38.9,94c25.1,25.1,58.5,38.9,94,38.9
		c25.7,0,50.3-7.2,71.4-20.8l100,100c11.3,11.3,29.5,11.3,40.8,0h0C359.1,336.1,359.1,317.8,347.8,306.6z"/>
	<g>
		<path class="st1" d="M347.8,306.6l-100-100c13.5-21.1,20.8-45.7,20.8-71.4c0-35.5-13.8-68.9-38.9-94c-51.8-51.8-136.1-51.8-188,0
			c-25.1,25.1-38.9,58.5-38.9,94c0,35.5,13.8,68.9,38.9,94c25.9,25.9,59.9,38.9,94,38.9c24.8,0,49.7-6.9,71.4-20.7l100.1,100.1
			c11.3,11.3,29.5,11.3,40.8,0h0C359.1,336.1,359.1,317.8,347.8,306.6z M135.6,23.3c28.7,0,57.3,10.9,79.1,32.7
			c21.1,21.1,32.8,49.2,32.8,79.1c0,29.9-11.6,58-32.8,79.1c-43.6,43.6-114.6,43.6-158.3,0c-21.1-21.1-32.8-49.2-32.8-79.1
			c0-29.9,11.6-58,32.8-79.1C78.3,34.2,107,23.3,135.6,23.3z"/>
	</g>
</g>
</svg>
